<?xml version="1.0" standalone="no"?>
<!DOCTYPE svg PUBLIC "-//W3C//DTD SVG 20010904//EN"
 "http://www.w3.org/TR/2001/REC-SVG-20010904/DTD/svg10.dtd">
<svg version="1.0" xmlns="http://www.w3.org/2000/svg"
 width="944.000000pt" height="944.000000pt" viewBox="0 0 944.000000 944.000000"
 preserveAspectRatio="xMidYMid meet">
<metadata>
Created by potrace 1.14, written by Peter Selinger 2001-2017
</metadata>
<g transform="translate(0.000000,944.000000) scale(0.100000,-0.100000)"
fill="#000000" stroke="none">
<path d="M1785 9282 c-2 -2 -21 -6 -42 -9 -47 -6 -194 -40 -248 -58 -337 -111
-623 -327 -815 -616 -37 -56 -72 -116 -75 -129 -1 -3 -16 -35 -34 -73 -29 -63
-77 -198 -86 -242 -2 -11 -4 -20 -5 -20 -1 0 -3 -9 -5 -20 -1 -11 -5 -33 -9
-50 -4 -16 -10 -59 -13 -95 -9 -83 -9 -6484 0 -6565 6 -65 14 -117 22 -152 3
-13 7 -33 10 -44 35 -160 163 -433 242 -517 7 -7 13 -17 13 -20 0 -4 21 -30
47 -59 27 -28 59 -64 73 -80 50 -56 229 -203 249 -203 4 0 16 -9 26 -20 10
-11 22 -20 26 -20 5 0 31 -14 60 -31 50 -29 222 -106 257 -114 9 -3 58 -15
107 -29 50 -13 113 -27 140 -31 28 -4 61 -8 75 -10 38 -6 280 -5 320 0 19 3
55 7 80 9 25 3 72 12 105 21 33 9 67 18 75 20 8 2 42 13 75 25 33 12 70 24 83
27 12 3 22 8 22 12 0 4 9 7 21 8 11 1 26 7 33 12 11 9 75 44 209 114 20 10 37
24 37 30 0 6 3 8 6 4 3 -3 23 4 43 17 20 12 43 26 51 30 8 4 24 12 35 19 11 7
104 59 205 116 102 57 201 115 221 128 19 12 37 23 40 23 3 0 61 31 128 70 68
38 127 70 132 70 5 0 9 5 9 10 0 6 5 10 11 10 6 0 23 9 39 20 15 11 30 17 34
13 3 -3 6 -1 6 5 0 7 7 12 15 12 8 0 15 5 15 10 0 6 5 10 10 10 9 0 153 79
280 154 25 15 57 31 73 37 15 6 27 15 27 20 0 5 4 9 8 9 10 0 187 98 221 122
13 9 28 15 33 12 4 -3 8 -1 8 3 0 5 24 21 53 36 62 34 133 73 167 95 14 9 43
26 65 37 22 12 69 38 105 59 58 34 139 79 195 110 11 6 22 13 25 16 5 5 38 23
115 64 22 12 42 24 43 29 2 4 8 5 13 1 5 -3 9 0 9 5 0 6 4 11 10 11 5 0 38 17
72 38 35 20 81 46 103 57 22 11 42 23 45 26 3 4 24 16 47 28 23 11 45 25 48
31 4 6 11 8 16 5 5 -4 9 -1 9 4 0 6 4 11 10 11 5 0 83 42 172 93 90 52 183
105 208 119 195 109 236 133 242 142 4 6 8 7 8 3 0 -5 12 0 28 11 15 10 115
67 222 127 107 59 288 161 402 226 114 66 212 119 218 119 5 0 10 4 10 8 0 5
16 14 35 22 19 8 35 17 35 21 0 4 8 9 18 12 9 4 53 27 97 52 44 25 90 51 103
57 12 6 22 15 22 20 0 5 4 7 9 3 5 -3 16 2 24 10 9 8 18 15 22 15 3 0 68 36
145 80 77 44 144 80 150 80 5 0 10 4 10 9 0 5 8 11 18 14 9 3 42 20 72 38 115
67 136 78 160 91 14 7 27 15 30 18 3 3 30 18 60 34 30 16 76 45 102 63 26 18
52 33 57 33 4 0 19 10 32 23 13 12 40 34 59 48 88 65 230 225 312 350 54 84
145 278 163 349 2 8 4 15 5 15 1 0 3 8 6 18 2 9 5 23 7 30 2 6 9 37 15 67 6
30 15 69 18 85 11 46 13 415 3 421 -5 3 -7 9 -4 14 5 9 -20 151 -32 180 -4 8
-8 24 -9 35 -5 36 -91 239 -134 315 -78 136 -217 302 -346 411 -68 58 -313
209 -449 278 -16 8 -34 19 -40 23 -8 7 -231 134 -475 270 -30 17 -72 42 -92
55 -21 12 -40 23 -43 23 -2 0 -26 13 -52 29 -27 15 -136 78 -243 138 -107 61
-215 123 -240 137 -25 15 -64 36 -87 47 -24 11 -43 24 -43 29 0 6 -7 10 -16
10 -9 0 -28 8 -42 18 -15 10 -45 27 -67 37 -22 11 -42 22 -45 25 -3 3 -18 12
-35 20 -16 8 -32 17 -35 20 -3 4 -77 46 -165 95 -88 50 -173 98 -190 107 -16
10 -41 24 -55 30 -14 7 -27 16 -30 20 -3 4 -17 11 -30 17 -14 6 -43 22 -65 36
-22 14 -47 28 -55 32 -20 9 -271 151 -290 163 -8 6 -28 17 -45 26 -16 8 -43
23 -60 34 -16 11 -43 26 -60 34 -16 8 -52 28 -80 44 -48 28 -150 87 -232 133
-21 12 -63 35 -93 52 -30 16 -59 33 -65 37 -5 4 -31 19 -56 33 -26 14 -204
115 -395 225 -192 109 -376 214 -409 232 -33 18 -64 36 -70 40 -5 4 -46 28
-90 52 -44 25 -96 54 -115 65 -19 11 -61 34 -94 52 -86 48 -159 90 -176 101
-8 6 -26 16 -40 22 -14 7 -36 19 -50 28 -14 10 -50 30 -80 47 -65 35 -74 41
-384 217 -131 75 -243 136 -247 136 -5 0 -9 5 -9 10 0 6 -6 10 -13 10 -7 0
-37 13 -67 28 -94 47 -326 126 -357 121 -4 -1 -10 0 -13 1 -9 3 -45 10 -90 16
-48 7 -369 12 -375 6z m995 -2672 c91 -51 181 -102 200 -113 19 -11 46 -27 60
-34 29 -16 90 -51 140 -80 19 -11 62 -35 95 -53 33 -18 65 -36 70 -40 6 -4 30
-19 55 -32 25 -14 62 -35 83 -47 20 -11 54 -30 75 -42 210 -117 308 -175 314
-184 4 -5 8 -6 8 -1 0 5 8 3 18 -5 9 -8 26 -19 37 -25 32 -17 107 -60 145 -81
19 -11 51 -29 70 -39 19 -11 37 -21 40 -24 6 -6 39 -25 100 -57 25 -13 61 -33
80 -44 19 -12 53 -31 75 -42 22 -12 55 -32 73 -44 18 -12 52 -31 75 -43 23
-12 56 -29 72 -39 31 -18 75 -43 180 -101 33 -18 68 -40 78 -48 9 -8 17 -12
17 -8 0 4 19 -6 42 -22 24 -16 53 -32 66 -36 12 -4 22 -12 22 -17 0 -5 5 -9
10 -9 6 0 70 -34 141 -75 72 -41 135 -75 140 -75 5 0 9 -4 9 -8 0 -4 12 -13
28 -19 30 -13 129 -68 146 -82 6 -4 40 -24 76 -44 36 -19 94 -52 130 -72 36
-21 81 -46 100 -57 19 -11 39 -24 45 -29 5 -5 17 -9 27 -9 10 0 18 -3 18 -8 0
-4 21 -19 47 -32 97 -51 193 -112 193 -122 0 -6 -3 -8 -7 -5 -3 4 -11 3 -17
-2 -6 -4 -31 -20 -56 -33 -25 -14 -63 -36 -85 -48 -22 -13 -51 -30 -65 -37
-14 -8 -47 -27 -75 -44 -27 -16 -63 -36 -80 -44 -16 -9 -43 -24 -60 -35 -16
-10 -50 -30 -75 -43 -25 -13 -109 -61 -188 -105 -79 -45 -147 -82 -153 -82 -5
0 -9 -4 -9 -8 0 -5 -28 -23 -62 -41 -73 -38 -92 -48 -288 -161 -145 -83 -165
-94 -250 -142 -25 -14 -63 -35 -85 -48 -22 -12 -56 -31 -75 -42 -19 -11 -48
-27 -65 -37 -16 -10 -52 -30 -80 -45 -27 -16 -54 -31 -60 -36 -5 -4 -46 -27
-90 -50 -44 -24 -82 -46 -85 -49 -3 -3 -21 -14 -40 -23 -19 -10 -57 -31 -85
-48 -27 -16 -58 -33 -67 -36 -10 -4 -18 -11 -18 -17 0 -6 -3 -8 -6 -4 -3 3
-23 -4 -43 -17 -20 -13 -63 -38 -96 -56 -33 -18 -73 -42 -90 -52 -16 -10 -46
-26 -65 -35 -19 -10 -37 -20 -40 -23 -3 -3 -21 -13 -40 -24 -43 -23 -100 -55
-209 -118 -46 -26 -86 -48 -88 -48 -3 0 -17 -8 -31 -18 -15 -11 -52 -32 -82
-49 -89 -49 -145 -81 -327 -184 -95 -55 -177 -99 -183 -99 -5 0 -10 -4 -10 -8
0 -11 -50 -34 -51 -24 -4 21 -4 4040 -1 4055 3 10 8 14 11 9 3 -5 80 -51 171
-102z"/>
<path d="M3222 5998 c-83 -13 -175 -61 -243 -128 -33 -33 -57 -60 -53 -60 4 0
1 -8 -7 -17 -25 -31 -49 -90 -56 -143 -2 -14 -5 -448 -7 -965 -1 -684 1 -954
10 -992 44 -198 221 -339 424 -336 41 0 87 3 102 7 34 8 138 57 208 97 30 18
84 49 120 69 36 20 83 47 105 60 22 13 56 32 75 42 19 10 42 23 50 28 48 31
351 200 360 200 5 0 10 3 10 8 0 4 24 18 53 32 28 14 61 33 71 43 11 9 25 17
32 17 7 0 19 6 26 13 7 7 29 20 48 30 19 9 58 30 85 47 28 16 57 33 65 37 18
9 319 179 340 193 8 5 30 17 48 26 31 16 111 88 142 129 25 32 58 108 65 150
9 49 10 141 2 175 -3 14 -8 35 -11 48 -10 45 -62 128 -109 172 -45 42 -270
180 -329 202 -16 5 -28 14 -28 18 0 5 -10 12 -22 16 -13 3 -30 12 -38 19 -8 7
-42 27 -75 44 -33 18 -67 36 -75 41 -50 31 -190 110 -194 110 -3 0 -35 18 -71
40 -36 22 -67 40 -69 40 -2 0 -33 17 -67 38 -61 37 -101 59 -236 133 -32 18
-65 38 -74 45 -9 8 -19 11 -22 7 -4 -3 -7 -1 -7 5 0 7 -4 12 -8 12 -5 0 -68
34 -140 75 -72 41 -136 75 -142 75 -5 0 -10 4 -10 8 0 15 -154 81 -205 88 -80
10 -87 10 -143 2z"/>
</g>
</svg>
