<svg width="36" height="33" viewBox="0 0 36 33" fill="none" xmlns="http://www.w3.org/2000/svg">
<path fill-rule="evenodd" clip-rule="evenodd" d="M10.6292 3.78569C11.0763 1.56877 13.0287 0 15.264 0H20.736C22.9713 0 24.922 1.56877 25.3708 3.78569C25.4203 4.02981 25.5495 4.25001 25.7378 4.41086C25.9262 4.57171 26.1625 4.66385 26.4089 4.67246H26.4642C28.8134 4.77738 30.6184 5.06846 32.1254 6.06862C33.0748 6.69815 33.8919 7.50708 34.5282 8.45308C35.3202 9.62754 35.6685 10.978 35.8359 12.6094C36 14.2052 36 16.2038 36 18.7355V18.8794C36 21.4111 36 23.4114 35.8359 25.0055C35.6685 26.6369 35.3202 27.9874 34.5282 29.1635C33.8899 30.1101 33.0734 30.9203 32.1254 31.548C30.9483 32.3282 29.597 32.6734 27.9594 32.8375C26.3553 33 24.3444 33 21.7892 33H14.2108C11.6556 33 9.64465 33 8.04056 32.8375C6.40298 32.6734 5.05172 32.3298 3.8746 31.548C2.92639 30.9198 2.10992 30.109 1.47181 29.1618C0.679814 27.9874 0.331535 26.6369 0.164093 25.0055C8.73277e-08 23.4114 0 21.4111 0 18.8794V18.7355C0 16.2038 8.73277e-08 14.2052 0.164093 12.6094C0.331535 10.978 0.679814 9.62754 1.47181 8.45308C2.10992 7.50592 2.92639 6.6951 3.8746 6.06692C5.38158 5.06846 7.1866 4.77738 9.53581 4.67415L9.56428 4.67246H9.59107C9.83747 4.66385 10.0738 4.57171 10.2622 4.41086C10.4505 4.25001 10.5797 4.02981 10.6292 3.78569ZM15.264 2.53846C14.1924 2.53846 13.2932 3.28815 13.0906 4.29169C12.7641 5.91631 11.3375 7.19569 9.62121 7.21092C7.36409 7.31246 6.15516 7.59169 5.25098 8.19077C4.57933 8.63622 4.00076 9.21063 3.54809 9.88138C3.08595 10.5668 2.808 11.4451 2.66065 12.8717C2.5133 14.3203 2.51163 16.1886 2.51163 18.8083C2.51163 21.428 2.51163 23.2946 2.66233 24.7432C2.808 26.1698 3.08595 27.0482 3.54977 27.7352C3.99851 28.402 4.57619 28.9774 5.25265 29.4258C5.95088 29.8878 6.84502 30.1671 8.29005 30.3126C9.75349 30.4598 11.6389 30.4615 14.2794 30.4615H21.7206C24.3594 30.4615 26.2448 30.4615 27.71 30.3126C29.155 30.1671 30.0491 29.8895 30.7473 29.4258C31.4238 28.9774 32.0032 28.402 32.4519 27.7335C32.914 27.0482 33.192 26.1698 33.3393 24.7432C33.4867 23.2946 33.4884 21.4263 33.4884 18.8083C33.4884 16.1886 33.4884 14.3203 33.3377 12.8717C33.192 11.4451 32.914 10.5668 32.4502 9.88138C31.9981 9.20973 31.4194 8.63468 30.7473 8.18908C29.8465 7.59169 28.6376 7.31246 26.3771 7.21092C24.6625 7.194 23.2359 5.918 22.9094 4.29169C22.8022 3.79123 22.5275 3.34348 22.1315 3.02405C21.7355 2.70463 21.2426 2.53311 20.736 2.53846H15.264ZM18 14.3846C17.0008 14.3846 16.0425 14.7858 15.336 15.4999C14.6295 16.2139 14.2326 17.1824 14.2326 18.1923C14.2326 19.2022 14.6295 20.1707 15.336 20.8848C16.0425 21.5988 17.0008 22 18 22C18.9992 22 19.9575 21.5988 20.664 20.8848C21.3705 20.1707 21.7674 19.2022 21.7674 18.1923C21.7674 17.1824 21.3705 16.2139 20.664 15.4999C19.9575 14.7858 18.9992 14.3846 18 14.3846ZM11.7209 18.1923C11.7209 16.5092 12.3825 14.895 13.56 13.7049C14.7376 12.5148 16.3347 11.8462 18 11.8462C19.6653 11.8462 21.2624 12.5148 22.44 13.7049C23.6175 14.895 24.2791 16.5092 24.2791 18.1923C24.2791 19.8754 23.6175 21.4896 22.44 22.6797C21.2624 23.8699 19.6653 24.5385 18 24.5385C16.3347 24.5385 14.7376 23.8699 13.56 22.6797C12.3825 21.4896 11.7209 19.8754 11.7209 18.1923ZM26.7907 13.1154C26.7907 12.7788 26.923 12.4559 27.1585 12.2179C27.394 11.9799 27.7134 11.8462 28.0465 11.8462H29.7209C30.054 11.8462 30.3734 11.9799 30.6089 12.2179C30.8444 12.4559 30.9767 12.7788 30.9767 13.1154C30.9767 13.452 30.8444 13.7748 30.6089 14.0129C30.3734 14.2509 30.054 14.3846 29.7209 14.3846H28.0465C27.7134 14.3846 27.394 14.2509 27.1585 14.0129C26.923 13.7748 26.7907 13.452 26.7907 13.1154Z" fill="#A1A3A7"/>
</svg>
