<svg width="28" height="24" viewBox="0 0 28 24" fill="none" xmlns="http://www.w3.org/2000/svg">
<path d="M28 7.75183C28 16.5039 15.0262 23.5881 14.4737 23.8806C14.3281 23.959 14.1654 24 14 24C13.8346 24 13.6719 23.959 13.5262 23.8806C12.9738 23.5881 0 16.5039 0 7.75183C0.00231592 5.69663 0.819575 3.72626 2.27248 2.27302C3.72539 0.819769 5.69528 0.00231647 7.75 0C10.3313 0 12.5912 1.11026 14 2.98695C15.4088 1.11026 17.6688 0 20.25 0C22.3047 0.00231647 24.2746 0.819769 25.7275 2.27302C27.1804 3.72626 27.9977 5.69663 28 7.75183Z" fill="#3632FF"/>
</svg>
