<svg width="26" height="20" viewBox="0 0 26 20" fill="none" xmlns="http://www.w3.org/2000/svg">
<path d="M26 6.00117C26.0004 5.54179 25.8922 5.08895 25.6843 4.68021C25.4764 4.27147 25.1748 3.91863 24.8046 3.65097C24.4345 3.3833 24.0063 3.20854 23.5557 3.14117C23.1052 3.07381 22.6452 3.11579 22.2139 3.26363C21.7826 3.41147 21.3925 3.6609 21.076 3.99124C20.7595 4.32157 20.5256 4.72327 20.3939 5.163C20.2621 5.60274 20.2362 6.06782 20.3184 6.51966C20.4006 6.9715 20.5884 7.39705 20.8663 7.76102L17.5801 11.8407L14.7158 5.20123C15.1973 4.83779 15.5531 4.33073 15.7328 3.75194C15.9125 3.17314 15.9071 2.55198 15.7172 1.97649C15.5273 1.40101 15.1626 0.900414 14.6748 0.545661C14.187 0.190908 13.6008 0 12.9994 0C12.398 0 11.8119 0.190908 11.3241 0.545661C10.8363 0.900414 10.4716 1.40101 10.2817 1.97649C10.0918 2.55198 10.0863 3.17314 10.266 3.75194C10.4458 4.33073 10.8016 4.83779 11.283 5.20123L8.41875 11.8407L5.13473 7.76102C5.52397 7.25063 5.73296 6.62372 5.72852 5.97985C5.72408 5.33598 5.50646 4.71207 5.11022 4.20719C4.71398 3.70231 4.16184 3.34542 3.54148 3.19319C2.92113 3.04096 2.26812 3.10212 1.68617 3.36696C1.10422 3.6318 0.626696 4.08513 0.329425 4.65496C0.0321537 5.22479 -0.0678166 5.87846 0.0453902 6.51214C0.158597 7.14582 0.478491 7.7232 0.954268 8.15257C1.43005 8.58193 2.03443 8.83868 2.67144 8.88204L4.29747 18.7001C4.35736 19.0628 4.5427 19.3923 4.8206 19.6303C5.0985 19.8682 5.45099 19.9992 5.81555 20C5.81555 20 8.68094 18.6668 12.9994 18.6668C17.3179 18.6668 20.1855 20 20.1855 20C20.55 19.9992 20.9025 19.8682 21.1804 19.6303C21.4583 19.3923 21.6437 19.0628 21.7036 18.7001L23.3263 8.88204C24.0511 8.83329 24.7305 8.50862 25.2269 7.97375C25.7233 7.43888 25.9997 6.73377 26 6.00117ZM13.0005 1.33489C13.3056 1.33489 13.6037 1.42611 13.8574 1.59702C14.111 1.76794 14.3087 2.01086 14.4254 2.29508C14.5422 2.57929 14.5727 2.89204 14.5132 3.19376C14.4537 3.49549 14.3068 3.77264 14.0911 3.99017C13.8754 4.2077 13.6006 4.35584 13.3014 4.41585C13.0022 4.47587 12.6921 4.44507 12.4103 4.32734C12.1285 4.20961 11.8876 4.01025 11.7181 3.75446C11.5487 3.49867 11.4582 3.19795 11.4582 2.89031C11.4582 2.47779 11.6207 2.08216 11.9099 1.79046C12.1992 1.49876 12.5915 1.33489 13.0005 1.33489ZM1.32302 6.00117C1.32302 5.69353 1.41347 5.39281 1.58294 5.13702C1.75241 4.88123 1.99329 4.68187 2.27511 4.56414C2.55693 4.44641 2.86704 4.41561 3.16622 4.47563C3.4654 4.53564 3.74021 4.68378 3.95591 4.90131C4.1716 5.11884 4.31849 5.39599 4.378 5.69772C4.43751 5.99944 4.40697 6.31218 4.29024 6.5964C4.1735 6.88062 3.97582 7.12354 3.72219 7.29445C3.46856 7.46537 3.17037 7.55659 2.86533 7.55659C2.45628 7.55659 2.06399 7.39272 1.77475 7.10102C1.48551 6.80932 1.32302 6.41369 1.32302 6.00117ZM20.4036 18.4812C20.3949 18.5336 20.3679 18.5811 20.3275 18.6152C20.2871 18.6492 20.2359 18.6675 20.1833 18.6668C20.1833 18.6668 18.2884 17.4446 12.9994 17.4446C7.71039 17.4446 5.81555 18.6668 5.81555 18.6668C5.7629 18.6675 5.71173 18.6492 5.67131 18.6152C5.6309 18.5811 5.6039 18.5336 5.59522 18.4812L3.97579 8.66761L4.11019 8.6065L8.07614 13.535C8.13891 13.612 8.21801 13.6739 8.30762 13.716C8.39723 13.7581 8.49506 13.7794 8.59391 13.7783C8.62378 13.7783 8.6536 13.7761 8.68315 13.7716C8.7956 13.7562 8.9022 13.7117 8.9927 13.6427C9.08319 13.5736 9.15452 13.4822 9.19982 13.3772L12.496 5.73341C12.8296 5.79414 13.1714 5.79414 13.5051 5.73341L16.8012 13.3772C16.8465 13.4822 16.9178 13.5736 17.0083 13.6427C17.0988 13.7117 17.2054 13.7562 17.3179 13.7716C17.3474 13.7761 17.3773 13.7783 17.4071 13.7783C17.5055 13.7783 17.6026 13.7562 17.6915 13.7135C17.7803 13.6708 17.8585 13.6087 17.9205 13.5316L21.8864 8.60317L22.0208 8.66428L20.4036 18.4812ZM23.1357 7.55659C22.8307 7.55659 22.5325 7.46537 22.2788 7.29445C22.0252 7.12354 21.8275 6.88062 21.7108 6.5964C21.5941 6.31218 21.5635 5.99944 21.623 5.69772C21.6825 5.39599 21.8294 5.11884 22.0451 4.90131C22.2608 4.68378 22.5356 4.53564 22.8348 4.47563C23.134 4.41561 23.4441 4.44641 23.7259 4.56414C24.0077 4.68187 24.2486 4.88123 24.4181 5.13702C24.5876 5.39281 24.678 5.69353 24.678 6.00117C24.678 6.41369 24.5155 6.80932 24.2263 7.10102C23.937 7.39272 23.5448 7.55659 23.1357 7.55659Z" fill="#3632FF"/>
</svg>
