<svg width="258" height="55" viewBox="0 0 258 55" fill="none" xmlns="http://www.w3.org/2000/svg">
<g clip-path="url(#clip0_494_650)">
<path d="M35.639 16.5701C39.6731 18.8194 39.6731 24.4453 35.639 26.6946L13.7606 38.8936C9.72647 41.1429 4.68103 38.3313 4.68103 33.83V43.2361C4.68103 48.9616 11.1 52.5401 16.2346 49.6773L44.075 34.1555C49.2096 31.2928 49.2096 24.1359 44.075 21.2705L35.639 16.5674V16.5701Z" fill="url(#paint0_linear_494_650)"/>
<path opacity="0.2" d="M38.5281 22.874C38.191 24.3969 37.2298 25.8067 35.639 26.6946L30.1785 29.7403C38.5615 32.9259 36.5194 37.5187 35.731 38.8102L44.075 34.1582C44.1781 34.1017 44.2756 34.0398 44.3759 33.9779L44.8969 33.1089L45.546 29.9878L43.5763 25.691L38.5281 22.8767V22.874Z" fill="black"/>
<path opacity="0.2" d="M43.0999 32.8156C47.641 29.135 46.3539 22.0857 40.7819 20.127L38.1157 19.1907C39.336 21.779 38.5113 25.0911 35.6362 26.6946L32.5159 28.4354L33.8141 28.8928C38.1909 30.4318 39.2023 35.9636 35.6418 38.8586L43.0943 32.8183L43.0999 32.8156Z" fill="black"/>
<path d="M4.68103 21.6016C4.68103 17.1003 9.72647 14.2887 13.7606 16.538L35.639 28.737C39.6731 30.9863 39.6731 36.6122 35.639 38.8615L44.075 34.1584C49.2096 31.2957 49.2096 24.1388 44.075 21.2734L16.2346 5.75428C11.1 2.88884 4.68103 6.46996 4.68103 12.1955V21.6016Z" fill="url(#paint1_linear_494_650)"/>
<path opacity="0.2" d="M14.9223 5.7998L11.9162 6.77917L9.15527 10.4329V15.9539C10.6235 15.5665 12.2617 15.701 13.7605 16.5378L19.1431 19.5378C17.4603 9.52891 24.6705 10.4545 24.6705 10.4545L16.3209 5.7998H14.9223Z" fill="black"/>
<path opacity="0.2" d="M13.7606 16.5377L16.8781 18.2758L16.6385 16.9628C15.8306 12.5315 20.291 8.9154 24.6706 10.4544L15.5186 7.23649C9.94658 5.28046 4.26872 9.88131 5.29676 15.5207L5.78988 18.2193C7.50048 15.9028 10.8855 14.9369 13.7606 16.5377Z" fill="black"/>
<path d="M13.7606 38.8938L15.591 37.8741V15.5183C15.591 11.017 20.6364 8.20537 24.6705 10.4547L16.2346 5.75428C11.1 2.88884 4.68103 6.46996 4.68103 12.1955V33.8329C4.68103 38.3342 9.72647 41.1458 13.7606 38.8965V38.8938Z" fill="url(#paint2_linear_494_650)"/>
<path opacity="0.2" d="M13.7606 38.8937L15.591 37.8739V33.2731C7.45588 39.6847 4.68103 33.1924 4.68103 33.1924V33.8327C4.68103 38.3313 9.72647 41.143 13.7606 38.8937Z" fill="black"/>
<path opacity="0.2" d="M4.68103 33.8301L5.05157 35.8641C6.28576 39.1063 10.3756 40.7771 13.7606 38.891L15.591 37.8713V36.4345L14.5351 37.2901C10.9662 40.1825 5.49175 38.2587 4.68382 33.8274L4.68103 33.8301Z" fill="black"/>
<path d="M28.2366 25.8633L25.8128 24.51C25.8128 24.51 25.8239 24.5154 25.8267 24.518L22.659 22.7504L20.2352 21.397C19.8674 21.1925 19.4746 21.101 19.0929 21.1064H19.0874C18.9118 21.1091 18.7391 21.1333 18.5692 21.1764C18.5134 21.1898 18.4577 21.206 18.402 21.2248C18.3129 21.2544 18.2265 21.2894 18.1429 21.3297C17.4325 21.6714 16.9115 22.371 16.9115 23.2454V32.17C16.9115 33.8166 18.7558 34.8444 20.2324 34.0211L25.8128 30.9108L25.8239 30.9027C25.8183 30.9054 25.8128 30.9081 25.81 30.9108L28.2338 29.5574C28.9721 29.1458 29.3398 28.4247 29.3398 27.7063C29.3398 26.9853 28.9721 26.2669 28.2338 25.8552L28.2366 25.8633Z" fill="white"/>
</g>
<path fill-rule="evenodd" clip-rule="evenodd" d="M212.16 1.59424H204.858V21.3093C204.389 20.9932 203.896 20.7004 203.38 20.431C200.786 19.0326 197.795 18.3334 194.406 18.3334C191.017 18.3334 188.026 19.0326 185.432 20.431C182.838 21.7857 180.83 23.7305 179.407 26.2651C177.985 28.7998 177.274 31.7496 177.274 35.1146C177.274 38.5233 177.985 41.495 179.407 44.0296C180.872 46.5206 182.88 48.4434 185.432 49.7982C188.026 51.1092 191.017 51.7647 194.406 51.7647C197.795 51.7647 200.786 51.1092 203.38 49.7982C204.409 49.2609 205.346 48.6342 206.19 47.9181C207.512 49.7912 209.693 51.0145 212.16 51.0145V1.59424ZM204.858 32.3748V37.7664C204.476 39.9814 203.586 41.8506 202.188 43.3741C200.263 45.4718 197.669 46.5206 194.406 46.5206C191.143 46.5206 188.549 45.4718 186.624 43.3741C184.7 41.2765 183.737 38.5233 183.737 35.1146C183.737 31.5748 184.7 28.7779 186.624 26.724C188.549 24.67 191.143 23.6431 194.406 23.6431C197.669 23.6431 200.263 24.67 202.188 26.724C203.586 28.2157 204.476 30.0993 204.858 32.3748ZM92.4835 14.0569H100.508V14.0548C100.508 13.529 100.515 13.0128 100.521 12.5037C100.536 11.2625 100.55 10.0637 100.473 8.87003C100.428 8.18552 100.117 7.43027 99.7023 6.87059C97.9323 4.47793 95.2721 3.83712 92.4835 3.33362V14.0569ZM148.007 37.6194C148.335 39.5398 149.196 40.9879 150.602 42.1197C153.735 44.6413 159.035 44.7703 162.878 42.4359C163.19 42.2469 163.495 42.0452 163.651 41.9418L163.709 41.9033C164.749 42.8269 165.772 43.7354 166.797 44.646L166.816 44.6626C167.653 45.4061 168.491 46.1512 169.343 46.9071C167.754 48.5258 166.072 49.6181 164.172 50.3588C156.755 53.2487 145.919 51.7049 141.32 42.1218C137.254 33.6455 140.891 23.0242 149.295 19.3832C160.358 14.5895 173.964 21.1621 173.419 35.6699C173.346 37.6423 173.32 37.6465 171.336 37.6444C166.474 37.6402 161.612 37.6342 156.751 37.6282C154.324 37.6252 151.898 37.6222 149.471 37.6194H148.007ZM148.459 30.9428H164.873C164.424 27.6535 160.994 25.1339 156.964 25.0548C152.919 24.9758 149.025 27.6597 148.459 30.9428ZM115.072 51.0454H106.946V18.4532H114.699V21.3472C116.32 19.4581 118.149 18.5218 120.268 18.1868C124.271 17.5544 128.112 17.8831 131.475 20.3964C134.733 22.8307 135.964 26.3219 136.057 30.1377C136.174 35.0193 136.161 39.9042 136.148 44.7885L136.148 44.7941V44.7942V44.7944V44.7946V44.7948V44.795V44.7952C136.143 46.7303 136.138 48.6654 136.141 50.6001C136.141 50.6864 136.122 50.7726 136.099 50.8748C136.087 50.928 136.075 50.9855 136.063 51.0495H128.068C128.061 50.9186 128.052 50.7875 128.043 50.6562L128.043 50.6556L128.043 50.6551V50.6549V50.6548V50.6547V50.6545V50.6544V50.6542C128.024 50.3897 128.006 50.1246 128.005 49.8594C127.996 47.7468 127.989 45.6342 127.982 43.5216V43.5203V43.519V43.5177V43.5164V43.5152V43.5139V43.5126C127.971 39.9838 127.959 36.4554 127.939 32.9277C127.935 32.135 127.906 31.3298 127.775 30.5496C127.02 26.0015 123.133 23.9729 118.848 25.86C116.819 26.7526 115.678 28.3463 115.335 30.4581C115.131 31.7147 115.074 33.0068 115.068 34.2822C115.051 37.9446 115.058 41.607 115.065 45.2686V45.2693V45.27V45.2706V45.2713V45.272V45.2726V45.2733C115.068 46.7689 115.071 48.2643 115.072 49.7596V51.0454ZM53.0531 18.4219H53.0521V18.4199L53.0531 18.4219ZM53.3755 19.131C53.2737 18.9066 53.1671 18.6717 53.0531 18.4219C53.7612 18.422 54.4552 18.434 55.1387 18.4458H55.1388H55.1389H55.1389H55.139H55.1391H55.1392C56.6937 18.4728 58.1937 18.4988 59.6816 18.3803C61.4178 18.243 62.2197 18.8173 62.8847 20.4318C64.5792 24.5434 66.3823 28.6114 68.1854 32.6792C68.8412 34.1588 69.4971 35.6384 70.1476 37.1201C70.2165 37.2763 70.3002 37.4266 70.4108 37.6254L70.4108 37.6254C70.4726 37.7363 70.5427 37.8622 70.6233 38.0126C70.7079 37.8453 70.7854 37.6951 70.8571 37.5561L70.8572 37.5559C71.0011 37.2769 71.1219 37.0427 71.2315 36.8038C71.6795 35.8216 72.1278 34.8396 72.5761 33.8575L72.5776 33.8542L72.5792 33.8509L72.5807 33.8476L72.5822 33.8442L72.5837 33.8409C74.7966 28.9932 77.0094 24.1458 79.1931 19.2854C79.5004 18.603 79.8771 18.3678 80.6053 18.3762C82.5174 18.4001 84.4295 18.3961 86.3941 18.3919H86.3945H86.3949H86.3953H86.3957H86.396H86.3964C87.1621 18.3903 87.9358 18.3887 88.7206 18.3887C88.6556 18.5327 88.5996 18.6604 88.5484 18.7772C88.4568 18.9862 88.3805 19.1604 88.2954 19.3312C87.1129 21.715 85.9298 24.0985 84.7468 26.4819L84.7404 26.4949L84.7339 26.5079L84.7275 26.521L84.721 26.534L84.7145 26.5471L84.7026 26.571L84.7016 26.573C80.7795 34.4751 76.8576 42.3767 72.953 50.288C72.6416 50.9164 72.2585 51.0266 71.6061 51.139C69.169 51.5613 68.0767 50.5065 67.0855 48.3177C64.0267 41.5676 60.8399 34.8742 57.6529 28.1807L57.6528 28.1806C56.441 25.6355 55.2292 23.0903 54.0244 20.542C53.812 20.0932 53.6066 19.6404 53.3769 19.1341L53.3769 19.134L53.3768 19.1339L53.3768 19.1338L53.3768 19.1338L53.3766 19.1334L53.3765 19.1333L53.3764 19.1329L53.3755 19.131ZM100.513 51.0558H92.5088V18.476H100.513V51.0558ZM224.123 49.7982C226.717 51.1092 229.708 51.7647 233.097 51.7647C236.486 51.7647 239.477 51.1092 242.071 49.7982C244.665 48.4434 246.673 46.5206 248.096 44.0296C249.56 41.495 250.292 38.5233 250.292 35.1146C250.292 31.7496 249.56 28.7998 248.096 26.2651C246.673 23.7305 244.665 21.7857 242.071 20.431C239.477 19.0326 236.486 18.3334 233.097 18.3334C229.708 18.3334 226.717 19.0326 224.123 20.431C221.529 21.7857 219.521 23.7305 218.098 26.2651C216.676 28.7998 215.965 31.7496 215.965 35.1146C215.965 38.5233 216.676 41.495 218.098 44.0296C219.563 46.5206 221.571 48.4434 224.123 49.7982ZM240.879 43.3741C238.954 45.4718 236.36 46.5206 233.097 46.5206C229.834 46.5206 227.24 45.4718 225.315 43.3741C223.391 41.2765 222.428 38.5233 222.428 35.1146C222.428 31.5748 223.391 28.7779 225.315 26.724C227.24 24.67 229.834 23.6431 233.097 23.6431C236.36 23.6431 238.954 24.67 240.879 26.724C242.803 28.7779 243.766 31.5748 243.766 35.1146C243.766 38.5233 242.803 41.2765 240.879 43.3741Z" fill="white"/>
<defs>
<linearGradient id="paint0_linear_494_650" x1="4.10433" y1="47.4549" x2="40.5622" y2="21.5262" gradientUnits="userSpaceOnUse">
<stop stop-color="white"/>
<stop offset="0.22" stop-color="#707AFB"/>
<stop offset="0.5" stop-color="#DB00D1"/>
<stop offset="0.78" stop-color="#0B00FA"/>
<stop offset="1" stop-color="#85B7FD"/>
</linearGradient>
<linearGradient id="paint1_linear_494_650" x1="45.7299" y1="32.0517" x2="11.1941" y2="13.8117" gradientUnits="userSpaceOnUse">
<stop stop-color="white"/>
<stop offset="0.22" stop-color="#707AFB"/>
<stop offset="0.5" stop-color="#DB00D1"/>
<stop offset="0.78" stop-color="#0B00FA"/>
<stop offset="1" stop-color="#85B7FD"/>
</linearGradient>
<linearGradient id="paint2_linear_494_650" x1="14.6744" y1="4.74532" x2="14.6744" y2="39.6848" gradientUnits="userSpaceOnUse">
<stop stop-color="white"/>
<stop offset="0.22" stop-color="#707AFB"/>
<stop offset="0.5" stop-color="#DB00D1"/>
<stop offset="0.78" stop-color="#0B00FA"/>
<stop offset="1" stop-color="#85B7FD"/>
</linearGradient>
<clipPath id="clip0_494_650">
<rect width="43.2442" height="45.9412" fill="white" transform="translate(4.68103 4.74512)"/>
</clipPath>
</defs>
</svg>
