<svg width="45" height="45" viewBox="0 0 45 45" fill="none" xmlns="http://www.w3.org/2000/svg">
<circle cx="22.5" cy="22.5" r="22" stroke="#A1A3A7"/>
<path d="M20.65 29.2924C21.49 29.2924 22.41 29.0224 23.34 28.4824L27.97 25.8124C29.6 24.8624 30.5 23.5624 30.5 22.1424C30.5 20.7224 29.6 19.4224 27.97 18.4824L23.34 15.8124C21.71 14.8724 20.14 14.7424 18.9 15.4524C17.67 16.1624 16.99 17.5924 16.99 19.4724V24.8124C16.99 26.6924 17.67 28.1224 18.9 28.8324C19.43 29.1424 20.02 29.2924 20.65 29.2924ZM20.65 16.5024C21.23 16.5024 21.89 16.7024 22.59 17.1124L27.22 19.7824C28.37 20.4424 29 21.2824 29 22.1424C29 23.0024 28.37 23.8424 27.22 24.5024L22.59 27.1724C21.44 27.8324 20.4 27.9624 19.65 27.5324C18.9 27.1024 18.49 26.1324 18.49 24.8124V19.4724C18.49 18.1524 18.9 17.1824 19.65 16.7524C19.95 16.5824 20.29 16.5024 20.65 16.5024Z" fill="#A1A3A7"/>
</svg>
