<svg width="24" height="24" viewBox="0 0 24 24" fill="none" xmlns="http://www.w3.org/2000/svg">
<path d="M10.92 2.86801C11.03 2.67917 11.1877 2.52248 11.3772 2.41358C11.5667 2.30468 11.7814 2.24738 12 2.24738C12.2186 2.24738 12.4333 2.30468 12.6228 2.41358C12.8123 2.52248 12.97 2.67917 13.08 2.86801L15.875 7.66601L21.303 8.84201C21.5165 8.88841 21.7141 8.98996 21.8762 9.13654C22.0382 9.28313 22.159 9.46962 22.2265 9.67743C22.2939 9.88525 22.3058 10.1071 22.2608 10.3209C22.2158 10.5347 22.1155 10.733 21.97 10.896L18.27 15.037L18.83 20.562C18.8521 20.7796 18.8167 20.9991 18.7274 21.1987C18.6381 21.3983 18.498 21.571 18.3211 21.6996C18.1442 21.8281 17.9367 21.908 17.7192 21.9312C17.5018 21.9545 17.2821 21.9203 17.082 21.832L12 19.592L6.918 21.832C6.71792 21.9203 6.49819 21.9545 6.28075 21.9312C6.06332 21.908 5.85578 21.8281 5.67887 21.6996C5.50196 21.571 5.36186 21.3983 5.27257 21.1987C5.18327 20.9991 5.14791 20.7796 5.17 20.562L5.73 15.037L2.03 10.897C1.88423 10.734 1.78376 10.5357 1.73861 10.3217C1.69347 10.1078 1.70524 9.88574 1.77274 9.67777C1.84025 9.46979 1.96112 9.28316 2.12331 9.13651C2.28549 8.98986 2.4833 8.88831 2.697 8.84201L8.125 7.66601L10.92 2.86801Z" fill="#BDC5CD"/>
</svg>
